# xmcd
#
# Track frame offsets: 
#        150
#        16425
#        35898
#        55331
#        78834
#        99874
#        117395
#        138084
#        152716
#        174883
#        191901
#        208486
#        232324
#        247986
#        264344
#        283552
#
# Disc length: 4149 seconds
#
# Revision: 1
# Processed by: cddbd v1.5PL3 Copyright (c) Steve Scherf et al.
# Submitted via: ExactAudioCopy v0.90b3
#
DISCID=e0103310
DTITLE=Red Hot Chili Peppers - By The Way
DYEAR=2002
DGENRE=Rock
TTITLE0=By The Way
TTITLE1=Universally Speaking
TTITLE2=This Is The Place
TTITLE3=Dosed
TTITLE4=Don't Forget Me
TTITLE5=The Zephyr Song
TTITLE6=Can't Stop
TTITLE7=I Could Die For You
TTITLE8=Midnight
TTITLE9=Throw Away Your Television
TTITLE10=Cabron
TTITLE11=Tear
TTITLE12=On Mercury
TTITLE13=Minor Thing
TTITLE14=Warm Tape
TTITLE15=Venice Queen
EXTD=
EXTT0=
EXTT1=
EXTT2=
EXTT3=
EXTT4=
EXTT5=
EXTT6=
EXTT7=
EXTT8=
EXTT9=
EXTT10=
EXTT11=
EXTT12=
EXTT13=
EXTT14=
EXTT15=
PLAYORDER=
